<?xml version="1.0" standalone="no"?><!DOCTYPE svg PUBLIC "-//W3C//DTD SVG 1.1//EN" "http://www.w3.org/Graphics/SVG/1.1/DTD/svg11.dtd"><svg t="1656576611689" class="icon" viewBox="0 0 1024 1024" version="1.1" xmlns="http://www.w3.org/2000/svg" p-id="2471" xmlns:xlink="http://www.w3.org/1999/xlink" width="48" height="48"><defs><style type="text/css">@font-face { font-family: feedback-iconfont; src: url("//at.alicdn.com/t/font_1031158_u69w8yhxdu.woff2?t=1630033759944") format("woff2"), url("//at.alicdn.com/t/font_1031158_u69w8yhxdu.woff?t=1630033759944") format("woff"), url("//at.alicdn.com/t/font_1031158_u69w8yhxdu.ttf?t=1630033759944") format("truetype"); }
</style></defs><path d="M832 384l8 1.6-1.6 8 1.6 3.2-4.8 3.2-44.8 161.6-16-4.8 40-147.2-260.8 144-158.4 284.8-11.2-6.4-6.4 6.4-176-176 11.2-11.2 163.2 163.2 147.2-265.6-294.4-297.6 11.2-11.2v-8h9.6l3.2-3.2 3.2 3.2L664 208l1.6 16-395.2 22.4 278.4 278.4 276.8-153.6 6.4 12.8z" fill="#050D42" p-id="2472"></path><path d="M896 384c0 35.2-28.8 64-64 64s-64-28.8-64-64 28.8-64 64-64 64 28.8 64 64z m-656-32c-62.4 0-112-49.6-112-112s49.6-112 112-112 112 49.6 112 112-49.6 112-112 112z m304 336c-80 0-144-64-144-144s64-144 144-144 144 64 144 144-64 144-144 144z m-224 144c0-35.2 28.8-64 64-64s64 28.8 64 64-28.8 64-64 64-64-28.8-64-64z m-144-176c0-17.6 14.4-32 32-32s32 14.4 32 32-14.4 32-32 32-32-14.4-32-32z m448-440c0-22.4 17.6-40 40-40s40 17.6 40 40-17.6 40-40 40-40-17.6-40-40zM736 560c0-27.2 20.8-48 48-48s48 20.8 48 48-20.8 48-48 48-48-20.8-48-48z" fill="#2F4BFF" p-id="2473"></path></svg>